HIERARCHY
ROOT hip
{
	OFFSET 0.000000 0.000000 0.000000 
	CHANNELS 6 Xposition Yposition Zposition Xrotation Zrotation Yrotation
	JOINT abdomen
	{
		OFFSET 0.000000 3.402643 0.000000 
		CHANNELS 3 Xrotation Zrotation Yrotation
		JOINT chest
		{
			OFFSET 0.000000 8.438565 -0.680529 
			CHANNELS 3 Xrotation Zrotation Yrotation
			JOINT neck
			{
				OFFSET 0.000000 10.207942 -0.272212 
				CHANNELS 3 Xrotation Zrotation Yrotation
				JOINT head
				{
					OFFSET 0.000000 3.130431 0.000000 
					CHANNELS 3 Xrotation Zrotation Yrotation
					End Site
					{
						OFFSET 0.000000 3.130435 0.000000 
					}
				}
			}
			JOINT lCollar
			{
				OFFSET 3.470700 6.669187 -0.816635 
				CHANNELS 3 Yrotation Zrotation Xrotation
				JOINT lShldr
				{
					OFFSET 3.198488 0.000000 0.000000 
					CHANNELS 3 Zrotation Yrotation Xrotation
					JOINT lForeArm
					{
						OFFSET 10.139888 0.000000 0.000000 
						CHANNELS 3 Yrotation Zrotation Xrotation
						JOINT lHand
						{
							OFFSET 8.370511 0.000000 0.000000 
							CHANNELS 3 Zrotation Yrotation Xrotation
							End Site
							{
								OFFSET 4.083176 0.000000 0.000000 
							}
						}
					}
				}
			}
			JOINT rCollar
			{
				OFFSET -3.470700 6.669187 -0.816635 
				CHANNELS 3 Yrotation Zrotation Xrotation
				JOINT rShldr
				{
					OFFSET -3.198488 0.000000 0.000000 
					CHANNELS 3 Zrotation Yrotation Xrotation
					JOINT rForeArm
					{
						OFFSET -10.139888 0.000000 0.000000 
						CHANNELS 3 Yrotation Zrotation Xrotation
						JOINT rHand
						{
							OFFSET -8.370511 0.000000 0.000000 
							CHANNELS 3 Zrotation Yrotation Xrotation
							End Site
							{
								OFFSET -4.083176 0.000000 0.000000 
							}
						}
					}
				}
			}
		}
	}
	JOINT lThigh
	{
		OFFSET 5.308129 -1.633274 1.361059 
		CHANNELS 3 Xrotation Zrotation Yrotation
		JOINT lShin
		{
			OFFSET -2.041588 -20.007561 0.000000 
			CHANNELS 3 Xrotation Zrotation Yrotation
			JOINT lFoot
			{
				OFFSET 0.000000 -19.190928 -1.224953 
				CHANNELS 3 Xrotation Yrotation Zrotation
				End Site
				{
					OFFSET 0.000000 -2.449906 4.627600 
				}
			}
		}
	}
	JOINT rThigh
	{
		OFFSET -5.308129 -1.633274 1.361059 
		CHANNELS 3 Xrotation Zrotation Yrotation
		JOINT rShin
		{
			OFFSET 2.041588 -20.007561 0.000000 
			CHANNELS 3 Xrotation Zrotation Yrotation
			JOINT rFoot
			{
				OFFSET 0.000000 -19.190928 -1.224953 
				CHANNELS 3 Xrotation Yrotation Zrotation
				End Site
				{
					OFFSET 0.000000 -2.449906 4.627600 
				}
			}
		}
	}
}
MOTION
Frames: 11
Frame Time: 0.033333
-26.739101 48.249214 -2.346113 -3.850991 -2.978428 0.439874 0.000000 0.000000 0.000000 4.529356 5.493548 2.325320 11.437649 3.380711 -3.932184 21.056467 13.425913 -8.634331 2.656863 1.488583 4.419930 -81.565605 27.176340 -8.566222 -33.627594 -4.581896 34.920940 -13.021121 9.127270 -4.242000 1.522390 7.162451 4.514635 -18.074345 70.279907 -66.568535 97.869476 -3.998874 -34.389477 -37.151596 -1.042516 -4.270012 -13.425204 14.489345 1.127923 3.730230 2.196434 10.184831 5.486959 -0.437361 -9.679083 -5.891909 2.282239 -3.648057 29.125412 3.145860 -12.816613 -19.601517 -0.259206 1.400449 
-26.853701 48.300400 -2.707814 -3.647412 -2.470468 0.791543 0.000000 0.000000 0.000000 4.623281 5.912360 2.504140 11.355567 3.197057 -3.530789 20.995440 13.211124 -8.698576 2.642929 2.028605 4.470014 -83.057968 29.486563 -9.346806 -34.302593 -4.563441 33.639851 -15.636109 8.171255 -4.219500 1.166328 9.312889 4.647785 -10.991091 70.035606 -56.569431 97.131302 -4.803257 -32.669834 -36.189445 -1.535078 -4.080869 -13.652511 13.925863 0.880573 3.883330 1.990808 10.696055 4.056327 -0.327407 -9.239473 -6.548194 1.980634 -3.748034 29.061636 3.137856 -13.174394 -19.173691 -0.216060 1.212585 
-26.991812 48.297989 -3.066279 -3.442247 -2.196613 1.397329 0.000000 0.000000 0.000000 4.668879 6.332388 2.398425 11.242785 3.207681 -3.266438 21.374115 12.667967 -8.458708 2.775844 2.324064 4.489628 -83.545151 30.802999 -9.577395 -35.309498 -4.459370 34.087044 -17.931833 7.867795 -4.269003 1.182626 11.666465 4.701793 -2.909843 68.592766 -45.048977 96.347275 -5.590373 -31.265659 -35.301979 -2.082303 -3.899830 -14.141100 13.682040 0.792054 4.283013 1.737041 11.170214 2.993411 -0.196543 -9.012136 -7.345100 1.911952 -3.846687 29.224173 3.214439 -13.961859 -18.833199 -0.199027 1.076803 
-27.124212 48.338486 -3.417673 -3.265851 -1.863825 2.227607 0.000000 0.000000 0.000000 4.794878 6.567751 2.133151 11.098863 3.364311 -3.071432 22.000792 12.256117 -8.005642 2.571633 2.853002 4.619057 -83.693466 30.587315 -9.258922 -35.294655 -4.489571 34.714268 -18.807081 8.424040 -4.410403 0.980168 13.134363 4.859249 7.760257 66.544525 -31.850822 95.256310 -6.210351 -28.455887 -33.450253 -2.686084 -3.704304 -14.627159 13.406593 0.807729 4.944969 1.395190 12.072808 1.722575 -0.116016 -8.348340 -7.909246 1.718490 -4.099166 29.037241 3.326149 -14.736955 -18.385260 -0.160846 0.908750 
-27.226496 48.421597 -3.810667 -2.904377 -1.482611 2.793802 0.000000 0.000000 0.000000 4.810702 6.714468 2.055556 11.160114 3.404064 -2.827140 22.082281 11.868190 -7.683211 2.288299 3.066571 4.650219 -83.022018 29.318533 -8.373713 -34.942112 -4.716186 35.524281 -18.981853 8.252794 -4.383371 0.348948 14.966963 5.011537 17.478441 63.634815 -19.099728 93.709755 -6.774612 -26.438360 -30.941912 -3.572880 -3.459729 -14.929334 13.103433 0.981063 5.579355 0.966227 13.535713 0.719919 -0.015943 -7.642154 -8.509321 1.395191 -4.342007 28.514200 3.528116 -15.292348 -17.723188 -0.112189 0.591145 
-27.307623 48.468468 -4.215715 -2.473740 -1.052886 3.350120 0.000000 0.000000 0.000000 4.798110 6.734770 1.859303 11.249499 3.336612 -2.523783 22.074610 11.521572 -7.225356 1.971540 3.326123 4.682003 -81.972168 26.991674 -6.688038 -34.410309 -5.176856 36.962910 -17.070879 8.282637 -4.306151 -0.252048 16.250891 5.123941 25.517851 59.533535 -7.071720 90.484230 -7.133081 -23.928978 -28.591049 -3.857718 -3.390323 -15.399765 12.753382 1.250829 7.112224 0.431193 15.894489 0.021309 0.033713 -7.338444 -9.360808 1.054089 -4.512992 28.319601 3.591949 -16.032356 -17.167185 -0.085361 0.439467 
-27.407581 48.525421 -4.617413 -1.963961 -0.730720 3.906554 0.000000 0.000000 0.000000 4.764410 6.745268 1.652206 11.125418 3.132292 -2.278393 22.532969 11.356194 -6.842390 1.939486 3.498735 4.653408 -80.662598 23.301373 -4.710025 -33.560184 -5.731777 37.918560 -15.304903 8.310916 -4.232735 -0.224487 16.213022 5.071599 33.635002 53.925159 2.582841 87.148232 -6.767557 -21.868647 -26.342611 -6.624937 -2.805402 -16.022963 12.459027 1.473049 9.407329 0.010057 17.432884 -0.327326 0.052980 -7.381239 -10.258595 0.907628 -4.443521 27.919010 3.562406 -17.024614 -16.444857 -0.054386 0.323471 
-27.487030 48.571533 -5.044697 -1.646047 -0.438080 4.531341 0.000000 0.000000 0.000000 4.963665 6.726646 1.357823 11.074477 2.878488 -2.326679 22.945847 11.108758 -6.627998 1.760665 3.501344 4.859070 -79.185150 18.716442 -2.554175 -32.948830 -6.447886 37.924931 -13.002588 7.451102 -4.025270 -0.168901 16.005274 5.220424 39.890499 47.728077 9.411500 82.410378 -5.408748 -20.240423 -23.891312 -9.164719 -2.359212 -16.459620 12.105413 1.699912 12.184307 -0.331314 17.924076 -0.330549 0.034325 -7.524294 -11.021525 0.732236 -4.448400 27.554232 3.550927 -17.970478 -15.732248 -0.034649 0.201527 
-27.557728 48.630325 -5.475343 -1.568245 0.145834 5.400423 0.000000 0.000000 0.000000 5.336615 6.415042 1.002950 11.094914 2.614616 -2.541318 23.183336 10.890696 -6.384947 1.285610 3.393970 5.270701 -78.138741 13.365273 -1.186556 -32.561207 -6.532175 39.356197 -11.138104 5.298852 -3.713809 -0.522137 15.509715 5.603083 44.568115 41.255486 14.397864 76.405426 -3.420395 -17.348866 -22.510403 -10.768534 -2.140825 -16.449696 11.236366 1.820183 14.970782 -0.553411 18.557634 -0.222670 -0.000278 -7.346738 -11.512665 0.263523 -4.537311 27.277668 3.402630 -18.970644 -15.048599 -0.042430 0.230058 
-27.580908 48.691292 -5.911974 -1.273308 0.611835 6.025776 0.000000 0.000000 0.000000 5.510155 6.151534 0.933903 11.179573 2.448727 -2.560846 23.281557 10.631840 -6.218734 1.051611 3.170607 5.446136 -77.075966 7.229308 0.452942 -31.711254 -6.945073 38.732597 -8.193631 4.445055 -3.578426 -0.521010 15.296454 5.749495 47.395889 34.856117 17.427074 69.333855 -0.600767 -14.311979 -21.482756 -12.725108 -1.870944 -16.186834 10.436433 1.988834 17.641247 -0.685118 19.129978 0.077730 -0.003468 -7.246729 -12.120649 -0.224213 -4.629297 26.888567 3.365875 -19.495476 -14.326134 -0.008438 0.083265 
-27.586422 48.717190 -6.326743 -1.036299 0.572238 6.699566 0.000000 0.000000 0.000000 5.625890 6.258993 0.904793 11.170607 2.507412 -2.482792 23.151873 10.468718 -6.117399 0.854973 3.311246 5.564540 -76.577927 0.851553 2.110870 -31.212172 -7.312484 36.969090 -5.568175 3.901329 -3.530737 -0.382404 15.664680 5.830893 48.416843 29.103367 19.285204 61.262615 3.141974 -9.768316 -21.577375 -13.028295 -1.808501 -16.137943 10.172703 2.274620 21.536875 -0.529443 19.481529 -1.061746 0.081630 -7.262035 -12.752989 -0.332548 -4.618433 26.477522 3.485461 -20.425100 -13.583972 0.008363 0.026241 
